<svg width="1238" height="214" viewBox="0 0 1238 214" fill="none" xmlns="http://www.w3.org/2000/svg">
<g clip-path="url(#clip0_4306_527)">
<path d="M220.939 127.124C220.376 133.834 216.354 140.469 210.314 143.538C209.217 144.095 203.794 146.166 203.04 146.166H174.476C181.811 156.518 201.729 169.764 201.729 183.108C201.729 196.453 190.182 205.083 177.904 204.04C169.548 203.331 164.665 197.771 159.219 192.264C144.808 177.708 124.89 157.348 112.383 141.604C104.591 131.786 101.864 121.944 110.471 111.486C129.658 94.7596 147.558 71.9621 166.844 55.8904C189.702 36.848 215.524 62.0906 199.924 82.8772C194.09 90.6465 184.142 96.3058 178.285 104.273H204.563C204.868 104.273 209.141 106.139 209.918 106.535C216.613 109.948 220.399 115.851 220.939 123.316C221.023 124.473 221.038 125.974 220.939 127.124Z" fill="#8AE932"/>
<path d="M128.584 9.25922C151.617 6.13627 166.288 32.0796 150.086 49.8042L65.0281 131.557C41.606 147.057 13.6747 120.276 31.2851 97.052L113.525 17.0437C117.897 13.3267 122.688 10.0514 128.584 9.2516V9.25922Z" fill="#0E5747"/>
<path d="M19.6693 144.84C34.1567 142.746 55.4994 145.092 70.4743 145.434C82.7452 145.716 101.612 142.563 111.263 150.347C127.434 163.38 120.518 187.107 100.904 191.045C75.7985 189.833 48.0729 192.332 23.2493 190.374C-6.2816 188.043 -5.32186 148.458 19.6693 144.84Z" fill="#0E5747"/>
</g>
<path d="M284.709 153V58.3542H326.083C336.359 58.3542 345.373 60.3373 353.125 64.3034C360.877 68.2695 366.916 73.768 371.243 80.7988C375.569 87.8296 377.733 96.1224 377.733 105.677C377.733 115.142 375.569 123.435 371.243 130.555C366.916 137.586 360.877 143.085 353.125 147.051C345.373 151.017 336.359 153 326.083 153H284.709ZM302.287 138.127H325.272C332.393 138.127 338.522 136.775 343.66 134.071C348.888 131.367 352.9 127.581 355.694 122.713C358.578 117.846 360.021 112.167 360.021 105.677C360.021 99.097 358.578 93.4183 355.694 88.6409C352.9 83.7734 348.888 79.9876 343.66 77.2834C338.522 74.5792 332.393 73.2271 325.272 73.2271H302.287V138.127Z" fill="white"/>
<path d="M435.76 154.352C422.78 154.352 412.595 150.702 405.203 143.4C397.902 136.099 394.251 125.553 394.251 111.762V58.3542H411.829V111.085C411.829 120.82 413.902 127.896 418.048 132.313C422.285 136.73 428.234 138.938 435.896 138.938C443.557 138.938 449.462 136.73 453.608 132.313C457.754 127.896 459.828 120.82 459.828 111.085V58.3542H477.134V111.762C477.134 125.553 473.438 136.099 466.047 143.4C458.746 150.702 448.65 154.352 435.76 154.352Z" fill="white"/>
<path d="M485.032 153L527.623 58.3542H544.93L587.655 153H569.267L532.626 67.6836H539.656L503.15 153H485.032ZM504.637 131.096L509.37 117.305H560.479L565.211 131.096H504.637Z" fill="white"/>
<path d="M598.34 153V58.3542H615.917V138.127H665.403V153H598.34Z" fill="white"/>
<path d="M689.337 100.674H739.364V109.193H689.337V100.674ZM690.419 144.347H747.342V153H680.414V58.3542H745.314V67.0076H690.419V144.347Z" fill="white"/>
<path d="M769.509 153V58.3542H777.756L843.062 140.561H838.735V58.3542H848.605V153H840.358L775.187 70.7934H779.514V153H769.509Z" fill="white"/>
<path d="M887.069 100.674H937.096V109.193H887.069V100.674ZM888.151 144.347H945.073V153H878.145V58.3542H943.045V67.0076H888.151V144.347Z" fill="white"/>
<path d="M967.24 153V58.3542H1002.66C1010.69 58.3542 1017.58 59.6612 1023.35 62.2753C1029.12 64.7992 1033.54 68.4948 1036.6 73.3623C1039.76 78.1397 1041.33 83.9537 1041.33 90.8042C1041.33 97.4745 1039.76 103.243 1036.6 108.111C1033.54 112.888 1029.12 116.584 1023.35 119.198C1017.58 121.722 1010.69 122.984 1002.66 122.984H972.784L977.246 118.387V153H967.24ZM1031.87 153L1007.53 118.657H1018.35L1042.82 153H1031.87ZM977.246 119.198L972.784 114.466H1002.39C1011.86 114.466 1019.02 112.392 1023.89 108.246C1028.85 104.1 1031.33 98.2858 1031.33 90.8042C1031.33 83.2326 1028.85 77.3735 1023.89 73.2271C1019.02 69.0807 1011.86 67.0076 1002.39 67.0076H972.784L977.246 62.2753V119.198Z" fill="white"/>
<path d="M1105.11 153.811C1097.9 153.811 1091.22 152.64 1085.1 150.296C1079.06 147.862 1073.78 144.482 1069.28 140.155C1064.86 135.829 1061.39 130.736 1058.86 124.877C1056.43 119.018 1055.21 112.618 1055.21 105.677C1055.21 98.7364 1056.43 92.3366 1058.86 86.4776C1061.39 80.6185 1064.9 75.5257 1069.41 71.199C1073.92 66.8723 1079.19 63.5372 1085.23 61.1936C1091.36 58.7598 1098.03 57.543 1105.24 57.543C1112.45 57.543 1119.03 58.6697 1124.98 60.9232C1131.02 63.1767 1136.16 66.6019 1140.4 71.199L1134.18 77.5538C1130.21 73.5877 1125.84 70.7483 1121.06 69.0357C1116.28 67.323 1111.15 66.4667 1105.65 66.4667C1099.79 66.4667 1094.38 67.4582 1089.42 69.4413C1084.55 71.3342 1080.27 74.0835 1076.58 77.689C1072.97 81.2044 1070.13 85.3508 1068.06 90.1282C1066.08 94.8154 1065.08 99.9984 1065.08 105.677C1065.08 111.266 1066.08 116.449 1068.06 121.226C1070.13 126.003 1072.97 130.195 1076.58 133.8C1080.27 137.316 1084.55 140.065 1089.42 142.048C1094.38 143.941 1099.74 144.888 1105.51 144.888C1110.92 144.888 1116.01 144.076 1120.79 142.454C1125.66 140.831 1130.12 138.082 1134.18 134.206L1139.85 141.778C1135.35 145.744 1130.07 148.764 1124.04 150.837C1118 152.82 1111.69 153.811 1105.11 153.811ZM1130.26 140.561V105.677H1139.85V141.778L1130.26 140.561Z" fill="white"/>
<path d="M1189.4 153V117.846L1191.7 124.065L1151.54 58.3542H1162.22L1197.51 116.088H1191.83L1227.12 58.3542H1237.13L1196.97 124.065L1199.27 117.846V153H1189.4Z" fill="white"/>
<defs>
<clipPath id="clip0_4306_527">
<rect width="220" height="195.123" fill="white" transform="translate(1 9)"/>
</clipPath>
</defs>
</svg>
